<?xml version="1.0" encoding="UTF-8" standalone="no"?>
<!-- Created with Inkscape (http://www.inkscape.org/) -->

<svg
   xmlns:dc="http://purl.org/dc/elements/1.1/"
   xmlns:cc="http://creativecommons.org/ns#"
   xmlns:rdf="http://www.w3.org/1999/02/22-rdf-syntax-ns#"
   xmlns:svg="http://www.w3.org/2000/svg"
   xmlns="http://www.w3.org/2000/svg"
   xmlns:sodipodi="http://sodipodi.sourceforge.net/DTD/sodipodi-0.dtd"
   xmlns:inkscape="http://www.inkscape.org/namespaces/inkscape"
   width="64"
   height="64"
   viewBox="0 0 64.000001 64.000001"
   id="svg2"
   version="1.1"
   inkscape:version="0.91 r13725"
   sodipodi:docname="sampleservice.svg"
   inkscape:export-filename="/mnt/workspace/infocus/06_Bluematrix/Website/static/images/sampleservice.png"
   inkscape:export-xdpi="180"
   inkscape:export-ydpi="180">
  <defs
     id="defs4" />
  <sodipodi:namedview
     id="base"
     pagecolor="#ffffff"
     bordercolor="#666666"
     borderopacity="1.0"
     inkscape:pageopacity="0.0"
     inkscape:pageshadow="2"
     inkscape:zoom="13.234375"
     inkscape:cx="32"
     inkscape:cy="32"
     inkscape:document-units="px"
     inkscape:current-layer="layer1"
     showgrid="true"
     units="px"
     inkscape:window-width="1920"
     inkscape:window-height="1031"
     inkscape:window-x="0"
     inkscape:window-y="25"
     inkscape:window-maximized="1"
     inkscape:snap-object-midpoints="true">
    <inkscape:grid
       type="xygrid"
       id="grid3336" />
  </sodipodi:namedview>
  <metadata
     id="metadata7">
    <rdf:RDF>
      <cc:Work
         rdf:about="">
        <dc:format>image/svg+xml</dc:format>
        <dc:type
           rdf:resource="http://purl.org/dc/dcmitype/StillImage" />
        <dc:title></dc:title>
      </cc:Work>
    </rdf:RDF>
  </metadata>
  <g
     inkscape:label="Layer 1"
     inkscape:groupmode="layer"
     id="layer1"
     transform="translate(0,-988.36216)">
    <path
       style="fill:#a9ceff;fill-opacity:1;stroke:none;stroke-width:6;stroke-linecap:round;stroke-miterlimit:4;stroke-dasharray:none;stroke-opacity:1"
       d="m 26.170442,1022.2349 c -1.398443,0.874 1.578354,3.1503 0.07779,3.8343 -1.500563,0.684 -1.266273,-3.056 -2.843281,-2.5737 -1.577007,0.4823 0.709206,3.4515 -0.917263,3.7238 -1.62647,0.2724 -0.432167,-3.2796 -2.080269,-3.2219 -1.648101,0.058 -0.208273,3.5174 -1.849808,3.3595 -1.641535,-0.1579 0.431393,-3.2797 -1.175488,-3.6505 -1.606881,-0.3708 -1.111559,3.3437 -2.656291,2.7663 -1.544733,-0.5774 1.265551,-3.0563 -0.190602,-3.8304 -1.456153,-0.7741 -1.939094,2.942 -3.281753,1.9845 -1.3426586,-0.9575 2.013467,-2.6246 0.807275,-3.7492 -1.206191,-1.1246 -2.6344825,2.3399 -3.6835678,1.0676 -1.0490855,-1.2724 2.6241668,-2.0141 1.7501368,-3.4126 -0.8740293,-1.3984 -3.1503359,1.5784 -3.8343543,0.078 -0.6840186,-1.5005 3.0560341,-1.2663 2.57373,-2.8433 -0.482304,-1.577 -3.451499,0.7092 -3.7238359,-0.9172 -0.272337,-1.6265 3.2796379,-0.4322 3.2219275,-2.0803 -0.05771,-1.6481 -3.517448,-0.2083 -3.359544,-1.8498 0.157904,-1.6415 3.2797398,0.4314 3.6505561,-1.1755 0.3708162,-1.6069 -3.3436888,-1.1116 -2.7663049,-2.6563 0.5773841,-1.5447 3.0563329,1.2656 3.8304053,-0.1906 0.7740722,-1.4561 -2.9420627,-1.9391 -1.9845466,-3.2817 0.9575164,-1.3427 2.6246418,2.0134 3.7492188,0.8072 1.124576,-1.2062 -2.33994,-2.6344 -1.067545,-3.6835 1.272396,-1.04912 2.014086,2.6241 3.412529,1.7501 1.398443,-0.874 -1.578354,-3.15033 -0.07779,-3.83435 1.500563,-0.68402 1.266273,3.05605 2.843281,2.57375 1.577007,-0.4823 -0.709206,-3.45152 0.917263,-3.72386 1.62647,-0.27233 0.432167,3.27966 2.080269,3.22196 1.648101,-0.058 0.208273,-3.51748 1.849808,-3.35957 1.641535,0.1579 -0.431393,3.27977 1.175488,3.65057 1.606881,0.3708 1.111559,-3.3437 2.656291,-2.76632 1.544733,0.57738 -1.265551,3.05632 0.190602,3.83042 1.456153,0.7741 1.939094,-2.94208 3.281753,-1.9846 1.342659,0.9576 -2.013467,2.6247 -0.807275,3.7493 1.206191,1.1245 2.634483,-2.34 3.683568,-1.0676 1.049085,1.2724 -2.624167,2.0141 -1.750137,3.4125 0.874029,1.3985 3.150336,-1.5783 3.834354,-0.078 0.684019,1.5006 -3.056034,1.2663 -2.57373,2.8433 0.482304,1.577 3.451499,-0.7092 3.723836,0.9173 0.272337,1.6265 -3.279638,0.4322 -3.221927,2.0803 0.05771,1.6481 3.517448,0.2082 3.359544,1.8498 -0.157904,1.6415 -3.27974,-0.4314 -3.650556,1.1755 -0.370817,1.6068 3.343688,1.1115 2.766305,2.6563 -0.577385,1.5447 -3.056333,-1.2656 -3.830406,0.1906 -0.774072,1.4561 2.942063,1.939 1.984547,3.2817 -0.957517,1.3427 -2.624642,-2.0135 -3.749219,-0.8073 -1.124576,1.2062 2.33994,2.6345 1.067545,3.6836 -1.272396,1.0491 -2.014086,-2.6242 -3.412529,-1.7501 z"
       id="path3357" />
    <path
       style="fill:#a9ceff;fill-opacity:1;stroke:none;stroke-width:6;stroke-linecap:round;stroke-miterlimit:4;stroke-dasharray:none;stroke-opacity:1"
       d="m 46.910494,1015.5195 c -0.834883,0.5218 0.942292,1.8808 0.04644,2.2891 -0.89585,0.4084 -0.755977,-1.8244 -1.697464,-1.5365 -0.941488,0.2879 0.423402,2.0606 -0.547615,2.2232 -0.971017,0.1626 -0.258007,-1.958 -1.241939,-1.9235 -0.983931,0.034 -0.124341,2.0999 -1.104352,2.0056 -0.980011,-0.094 0.257545,-1.958 -0.701777,-2.1794 -0.959322,-0.2214 -0.663611,1.9962 -1.58583,1.6515 -0.922219,-0.3447 0.755546,-1.8246 -0.113791,-2.2868 -0.869336,-0.4621 -1.157656,1.7565 -1.959236,1.1848 -0.801579,-0.5716 1.202058,-1.5669 0.481951,-2.2383 -0.720107,-0.6714 -1.57281,1.397 -2.199124,0.6373 -0.626313,-0.7596 1.566651,-1.2024 1.044848,-2.0373 -0.521804,-0.8348 -1.880779,0.9423 -2.289144,0.046 -0.408366,-0.8959 1.82448,-0.756 1.53654,-1.6975 -0.28794,-0.9415 -2.060576,0.4234 -2.223164,-0.5476 -0.162588,-0.971 1.957973,-0.258 1.92352,-1.2419 -0.03445,-0.984 -2.099948,-0.1244 -2.005678,-1.1044 0.09427,-0.98 1.958034,0.2576 2.179415,-0.7018 0.22138,-0.9593 -1.996213,-0.6636 -1.651509,-1.5858 0.344703,-0.9222 1.824658,0.7555 2.286786,-0.1138 0.462128,-0.8693 -1.756438,-1.1576 -1.184792,-1.9592 0.571646,-0.8016 1.566935,1.202 2.238317,0.4819 0.671383,-0.7201 -1.396965,-1.5728 -0.637333,-2.1991 0.759631,-0.6263 1.202427,1.5667 2.03731,1.0448 0.834883,-0.5218 -0.942291,-1.8807 -0.04644,-2.2891 0.89585,-0.4084 0.755977,1.8245 1.697465,1.5365 0.941487,-0.2879 -0.423403,-2.0605 0.547614,-2.2231 0.971017,-0.1626 0.258007,1.958 1.241939,1.9235 0.983932,-0.034 0.124341,-2.0999 1.104352,-2.0057 0.980011,0.094 -0.257545,1.9581 0.701777,2.1794 0.959322,0.2214 0.663611,-1.9962 1.58583,-1.6515 0.922219,0.3447 -0.755546,1.8247 0.113791,2.2868 0.869336,0.4621 1.157657,-1.7564 1.959236,-1.1848 0.801579,0.5717 -1.202058,1.567 -0.481951,2.2383 0.720108,0.6714 1.572811,-1.3969 2.199124,-0.6373 0.626313,0.7596 -1.566651,1.2024 -1.044848,2.0373 0.521804,0.8349 1.880779,-0.9423 2.289145,-0.046 0.408365,0.8958 -1.82448,0.756 -1.53654,1.6974 0.287939,0.9415 2.060576,-0.4234 2.223163,0.5477 0.162588,0.971 -1.957973,0.258 -1.92352,1.2419 0.03445,0.9839 2.099949,0.1243 2.005678,1.1043 -0.09427,0.9801 -1.958034,-0.2575 -2.179415,0.7018 -0.22138,0.9593 1.996213,0.6636 1.65151,1.5859 -0.344704,0.9222 -1.824659,-0.7556 -2.286787,0.1137 -0.462128,0.8694 1.756438,1.1577 1.184792,1.9593 -0.571646,0.8016 -1.566935,-1.2021 -2.238317,-0.482 -0.671383,0.7201 1.396965,1.5728 0.637334,2.1992 -0.759632,0.6263 -1.202428,-1.5667 -2.037311,-1.0449 z"
       id="path3357-3" />
    <path
       style="fill:#a9ceff;fill-opacity:1;stroke:none;stroke-width:6;stroke-linecap:round;stroke-miterlimit:4;stroke-dasharray:none;stroke-opacity:1"
       d="m 38.874572,1038.8927 c -0.954639,0.5967 1.077455,2.1506 0.0531,2.6175 -1.024351,0.467 -0.864415,-2.0862 -1.94095,-1.7569 -1.076536,0.3292 0.484135,2.3561 -0.626165,2.542 -1.110301,0.186 -0.295016,-2.2388 -1.420084,-2.1994 -1.125068,0.039 -0.142177,2.4012 -1.262762,2.2934 -1.120584,-0.1078 0.294488,-2.2389 -0.802441,-2.492 -1.096928,-0.2532 -0.758799,2.2825 -1.813302,1.8884 -1.054504,-0.3942 0.863922,-2.0864 -0.130114,-2.6148 -0.994034,-0.5285 -1.323712,2.0083 -2.24027,1.3547 -0.916559,-0.6537 1.374482,-1.7917 0.551082,-2.5594 -0.8234,-0.7677 -1.798416,1.5974 -2.514568,0.7288 -0.716153,-0.8686 1.791373,-1.3749 1.194721,-2.3296 -0.596651,-0.9546 -2.150559,1.0775 -2.617501,0.053 -0.466941,-1.0243 2.086185,-0.8644 1.756943,-1.9409 -0.329242,-1.0766 -2.356147,0.4841 -2.542056,-0.6262 -0.18591,-1.1103 2.238826,-0.295 2.199431,-1.4201 -0.0394,-1.125 -2.401167,-0.1422 -2.293375,-1.2627 0.107793,-1.1206 2.238897,0.2944 2.492032,-0.8025 0.253136,-1.0969 -2.28255,-0.7588 -1.888402,-1.8133 0.394148,-1.0545 2.086389,0.8639 2.614805,-0.1301 0.528416,-0.994 -2.008383,-1.3237 -1.35474,-2.2403 0.653643,-0.9165 1.791698,1.3745 2.559384,0.5511 0.767686,-0.8234 -1.597347,-1.7984 -0.728754,-2.5146 0.868594,-0.7161 1.374905,1.7914 2.329545,1.1948 0.954639,-0.5967 -1.077455,-2.1506 -0.0531,-2.6175 1.024351,-0.467 0.864415,2.0862 1.94095,1.7569 1.076536,-0.3292 -0.484135,-2.3561 0.626165,-2.542 1.110301,-0.186 0.295016,2.2388 1.420084,2.1994 1.125068,-0.039 0.142177,-2.4012 1.262762,-2.2934 1.120584,0.1078 -0.294488,2.2389 0.802441,2.492 1.096928,0.2532 0.758799,-2.2825 1.813302,-1.8884 1.054504,0.3942 -0.863922,2.0864 0.130114,2.6148 0.994034,0.5285 1.323712,-2.0083 2.24027,-1.3547 0.916559,0.6536 -1.374482,1.7917 -0.551082,2.5594 0.8234,0.7677 1.798416,-1.5974 2.514568,-0.7288 0.716153,0.8686 -1.791373,1.3749 -1.194721,2.3296 0.596651,0.9546 2.150559,-1.0775 2.617501,-0.053 0.466941,1.0243 -2.086185,0.8644 -1.756943,1.9409 0.329243,1.0766 2.356147,-0.4841 2.542056,0.6262 0.18591,1.1103 -2.238826,0.295 -2.199431,1.4201 0.0394,1.125 2.401167,0.1422 2.293375,1.2627 -0.107793,1.1206 -2.238897,-0.2945 -2.492032,0.8025 -0.253136,1.0969 2.28255,0.7588 1.888402,1.8133 -0.394148,1.0545 -2.086389,-0.8639 -2.614805,0.1301 -0.528416,0.994 2.008383,1.3237 1.35474,2.2403 -0.653643,0.9165 -1.791698,-1.3745 -2.559384,-0.5511 -0.767686,0.8234 1.597347,1.7984 0.728754,2.5145 -0.868594,0.7162 -1.374905,-1.7913 -2.329545,-1.1947 z"
       id="path3357-3-6" />
  </g>
</svg>
